<?xml version="1.0" standalone="no"?>
<!DOCTYPE svg PUBLIC "-//W3C//DTD SVG 20010904//EN"
 "http://www.w3.org/TR/2001/REC-SVG-20010904/DTD/svg10.dtd">
<svg version="1.0" xmlns="http://www.w3.org/2000/svg"
 width="512.000000pt" height="512.000000pt" viewBox="0 0 512.000000 512.000000"
 preserveAspectRatio="xMidYMid meet">
<metadata>
Created by potrace 1.14, written by Peter Selinger 2001-2017
</metadata>
<g transform="translate(0.000000,512.000000) scale(0.100000,-0.100000)"
fill="#000000" stroke="none">
<path d="M3103 4600 c-110 -22 -197 -86 -223 -165 -17 -52 -8 -175 20 -255 12
-36 102 -229 200 -430 224 -460 279 -601 331 -849 27 -130 23 -139 -14 -41
-46 121 -99 203 -192 296 -136 136 -271 208 -457 240 -190 33 -512 -16 -1027
-157 -615 -168 -1087 -366 -1239 -519 -52 -53 -71 -86 -78 -142 -17 -130 91
-242 361 -373 247 -120 554 -226 959 -330 550 -142 876 -182 1076 -135 284 68
523 287 611 560 27 82 23 25 -7 -109 -55 -244 -123 -416 -344 -871 -82 -168
-159 -334 -171 -370 -30 -89 -37 -207 -15 -264 23 -60 91 -121 158 -141 85
-26 229 -30 348 -10 252 42 477 161 676 360 315 314 508 738 590 1300 14 91
18 181 18 370 -1 278 -17 428 -75 663 -161 660 -557 1164 -1041 1327 -140 46
-352 67 -465 45z m356 -220 c438 -125 796 -567 951 -1175 59 -234 75 -370 75
-650 -1 -328 -36 -551 -130 -825 -49 -143 -171 -385 -253 -500 -171 -240 -400
-414 -634 -480 -95 -27 -286 -38 -343 -18 -38 12 -40 15 -43 60 -4 63 31 152
185 461 152 306 226 477 286 662 148 454 148 842 -2 1293 -66 199 -118 317
-286 654 -148 297 -181 371 -195 448 -16 86 17 102 195 95 81 -2 144 -11 194
-25z m-675 -1190 c208 -53 383 -212 454 -413 34 -96 42 -271 18 -367 -31 -119
-81 -206 -175 -301 -137 -137 -273 -193 -471 -191 -152 1 -424 50 -791 143
-558 141 -1026 323 -1165 454 l-37 35 24 27 c132 144 715 368 1369 527 160 39
398 87 495 99 87 11 207 6 279 -13z m673 -452 c-3 -8 -6 -5 -6 6 -1 11 2 17 5
13 3 -3 4 -12 1 -19z m0 -370 c-3 -8 -6 -5 -6 6 -1 11 2 17 5 13 3 -3 4 -12 1
-19z"/>
</g>
</svg>
